<svg width="37" height="36" viewBox="0 0 37 36" fill="none" xmlns="http://www.w3.org/2000/svg">
<path d="M22.57 14.656L17.0229 19.7649L14.3607 17.0942C14.0655 16.7979 13.5795 16.7912 13.276 17.079C12.9721 17.3671 12.9652 17.8406 13.2604 18.1369L16.4533 21.333C16.75 21.624 17.2293 21.634 17.5383 21.3553L23.6396 15.7438C23.7878 15.6075 23.8744 15.4194 23.8801 15.221C23.8858 15.0226 23.8103 14.8301 23.6703 14.6859C23.3734 14.3849 22.8838 14.3717 22.57 14.656Z" fill="white"/>
<path d="M18.4538 6.79348C12.1141 6.79348 6.95916 11.82 6.95916 18.0018C6.95916 24.1839 12.1141 29.2105 18.4538 29.2105C24.7937 29.2105 29.9487 24.1839 29.9487 18.0018C29.9487 11.82 24.7937 6.79348 18.4538 6.79348ZM18.4538 27.71C12.9604 27.71 8.49795 23.351 8.49795 18.0018C8.49795 12.6526 12.9604 8.29395 18.4538 8.29395C23.9525 8.29395 28.4099 12.6403 28.4099 18.0018C28.4099 23.3634 23.9525 27.71 18.4538 27.71Z" fill="white"/>
<path d="M34.2726 13.8756L34.5265 9.42662C34.5443 9.12799 34.3778 8.84754 34.1034 8.7139L30.0409 6.71084L27.9867 2.74956C27.847 2.48434 27.5611 2.32286 27.2558 2.33693L22.6854 2.57724L18.8769 0.123744C18.6203 -0.0412481 18.2876 -0.0412481 18.0306 0.123744L14.2221 2.57724L9.65985 2.3296C9.3533 2.31202 9.06598 2.47437 8.92893 2.74223L6.87441 6.70351L2.81226 8.70657C2.53997 8.84255 2.37467 9.12125 2.3891 9.41929L2.64276 13.8682L0.126905 17.5819C-0.0423015 17.8322 -0.0423015 18.1566 0.126905 18.4071L2.63524 22.1281L2.38128 26.577C2.36355 26.8757 2.52975 27.1561 2.80445 27.2898L6.8669 29.2928L8.92111 33.2541C9.06057 33.5196 9.34638 33.6808 9.65204 33.6667L14.2146 33.4191L18.0231 35.8723C18.2782 36.0426 18.6142 36.0426 18.8694 35.8723L22.6779 33.4191L27.2405 33.6667C27.5467 33.684 27.834 33.5217 27.9714 33.2541L30.0256 29.2928L34.088 27.2898C34.36 27.1535 34.5256 26.8751 34.5112 26.577L34.2572 22.1281L36.7731 18.4145C36.9423 18.1642 36.9423 17.8395 36.7731 17.5892L34.2726 13.8756ZM32.8414 21.513C32.7476 21.6472 32.704 21.8087 32.7185 21.9707L32.9568 26.1794L29.1176 28.0699C28.9713 28.1414 28.8526 28.2574 28.7792 28.4002L26.8401 32.1437L22.524 31.9113C22.3587 31.9054 22.1955 31.9471 22.0546 32.0312L18.4538 34.3496L14.8532 32.0312C14.7282 31.9488 14.581 31.9043 14.4301 31.9037H14.3916L10.0752 32.1364L8.13639 28.3925C8.06306 28.2498 7.94435 28.1341 7.79768 28.0626L3.95072 26.1794L4.18935 21.9707C4.19536 21.8096 4.15239 21.6504 4.06613 21.513L1.68883 18.0018L4.06613 14.4907C4.1602 14.3568 4.20378 14.195 4.18935 14.0332L3.95072 9.8243L7.79017 7.93378C7.93653 7.86227 8.05525 7.74651 8.12858 7.60379L10.0674 3.85996L14.3838 4.09265C14.5488 4.09822 14.712 4.0566 14.8532 3.97249L18.4538 1.65439L22.0546 3.97249C22.1922 4.06422 22.3581 4.10671 22.524 4.09265L26.8401 3.85996L28.7792 7.60379C28.8526 7.74651 28.9713 7.86227 29.1176 7.93378L32.9568 9.8243L32.7185 14.0332C32.7125 14.1941 32.7554 14.3532 32.8414 14.4907L35.219 18.0018L32.8414 21.513Z" fill="white"/>
</svg>
