<svg width="31" height="36" viewBox="0 0 31 36" fill="none" xmlns="http://www.w3.org/2000/svg">
<path d="M29.4539 6.20029L18.6854 0.249041C17.6638 -0.315677 16.2592 0.118721 15.7059 1.16128L9.40653 13.1072H1.7451C0.766142 13.1072 0 13.8891 0 14.8883V34.219C0 35.2181 0.766142 36 1.7451 36H26.2191C27.1981 36 27.9642 35.2181 27.9642 34.219V29.7012H28.6878C29.0709 29.7012 29.3688 29.3971 29.3688 29.0062V23.8369C29.3688 23.4459 29.0709 23.1418 28.6878 23.1418H27.9642V18.0594C27.9642 17.234 27.3683 16.4955 26.6022 16.3218L30.3478 9.24108C30.9011 8.15508 30.518 6.80845 29.4539 6.20029ZM21.7925 3.55047L15.0675 16.2783H13.1521L20.3453 2.76855L21.7925 3.55047ZM16.9403 1.81287C17.1531 1.42192 17.6638 1.24816 18.0469 1.46536L19.111 2.07351L11.6198 16.2783H9.27884L16.9403 1.81287ZM1.31947 14.8448C1.31947 14.7145 1.48972 14.4973 1.70254 14.4973H8.64038L7.70399 16.2349H1.70254C1.57485 16.2349 1.44716 16.2349 1.31947 16.2783V14.8448ZM26.5596 34.219C26.5596 34.4362 26.3894 34.6099 26.1765 34.6099H1.70254C1.48972 34.6099 1.31947 34.4362 1.31947 34.219V18.0594C1.31947 17.8422 1.48972 17.6684 1.70254 17.6684H26.134C26.3468 17.6684 26.517 17.8422 26.517 18.0594V23.1418H23.9207C22.7715 23.1418 21.8776 24.0975 21.8776 25.2269V27.6161C21.8776 28.789 22.814 29.7012 23.9207 29.7012H26.5596V34.219ZM27.9642 24.5319V28.3112H23.9207C23.5376 28.3112 23.2397 28.0071 23.2397 27.6161V25.2269C23.2397 24.836 23.5376 24.5319 23.9207 24.5319H27.9642ZM29.1134 8.54604L25.0273 16.2783H16.5998L22.9843 4.2455L28.7729 7.46005C29.1985 7.63381 29.3262 8.15508 29.1134 8.54604Z" fill="white"/>
<path d="M26.517 7.89445L26.1765 7.72069C25.3253 7.24285 24.1761 7.59037 23.7079 8.45916L23.2822 9.28452C23.0694 9.71892 22.9843 10.2402 23.1545 10.718C23.2822 11.1959 23.6227 11.5868 24.0484 11.804L24.3889 11.9778C24.6442 12.1081 24.9422 12.195 25.2401 12.195C25.9212 12.195 26.517 11.804 26.8575 11.2393L27.2832 10.414C27.7088 9.50172 27.3683 8.37228 26.517 7.89445ZM26.0488 9.76236L25.6232 10.5877C25.4955 10.8049 25.1976 10.8918 24.9848 10.7615L24.6443 10.5443C24.5591 10.5008 24.474 10.3705 24.4314 10.2836C24.3889 10.1533 24.3889 10.023 24.474 9.93612L24.8996 9.11076C24.9848 8.98044 25.155 8.85012 25.3253 8.85012C25.4104 8.85012 25.453 8.85012 25.5381 8.89356L25.8786 9.06732C26.0488 9.24108 26.134 9.50172 26.0488 9.76236Z" fill="white"/>
</svg>
