<svg width="65" height="62" viewBox="0 0 65 62" fill="none" xmlns="http://www.w3.org/2000/svg">
<path d="M61.0416 26.715H57.7641C57.5774 26.0232 57.1757 25.4125 56.6198 24.9752C56.0639 24.5378 55.384 24.2976 54.6829 24.2908H51.1842V15.5337C51.1882 15.3699 51.1495 15.2079 51.0721 15.0645C50.9947 14.921 50.8815 14.8012 50.7439 14.7173L26.0628 0.12635C25.9237 0.0435931 25.7656 0 25.6047 0C25.4438 0 25.2858 0.0435931 25.1467 0.12635L0.457899 14.7173C0.318204 14.8002 0.202322 14.9193 0.121933 15.0626C0.0415439 15.206 -0.000511792 15.3684 4.70057e-06 15.5337V44.7158C8.80775e-06 44.8812 0.0425691 45.0438 0.123408 45.1871C0.204247 45.3304 0.320517 45.4494 0.460531 45.5322L25.1518 60.1231C25.2919 60.2059 25.4507 60.2494 25.6124 60.2495C25.7782 60.2496 25.9413 60.2061 26.0861 60.1231L39.0789 52.4524V57.9976C39.0776 58.5255 39.1786 59.0485 39.3761 59.5362C39.5735 60.0239 39.8635 60.4667 40.2293 60.8389C40.5951 61.2111 41.0294 61.5054 41.507 61.7047C41.9847 61.9039 42.4962 62.0043 43.012 61.9998H61.0416C61.5587 62.0047 62.0717 61.9049 62.5509 61.7062C63.0302 61.5074 63.4664 61.2136 63.8343 60.8416C64.2022 60.4696 64.4946 60.0268 64.6946 59.5387C64.8947 59.0506 64.9985 58.5269 65 57.9976V30.7797C64.9994 29.7042 64.5825 28.6726 63.8407 27.9109C63.0989 27.1491 62.0924 26.7191 61.0416 26.715ZM54.7157 26.1763C55.0702 26.1763 55.4103 26.3204 55.661 26.5771C55.9118 26.8337 56.0526 27.1818 56.0526 27.5447V27.636C56.0526 27.9989 55.9118 28.347 55.661 28.6036C55.4103 28.8603 55.0702 29.0044 54.7157 29.0044H49.3633C49.0087 29.0044 48.6686 28.8603 48.4179 28.6036C48.1672 28.347 48.0263 27.9989 48.0263 27.636V27.5447C48.0263 27.1818 48.1672 26.8337 48.4179 26.5771C48.6686 26.3204 49.0087 26.1763 49.3633 26.1763H54.7157ZM25.6124 2.03133L35.8721 8.09413L13.0245 21.5956L2.76487 15.5328L25.6124 2.03133ZM24.7368 57.6738L1.84211 44.1714V17.1645L24.7368 30.6669V57.6738ZM25.6124 29.0341L14.8666 22.684L37.7142 9.18271L48.4605 15.5328L25.6124 29.0341ZM39.0789 30.7797V50.2754L26.5789 57.6738V30.6669L49.3421 17.1645V24.2908H49.3707C48.6695 24.2976 47.9896 24.5378 47.4337 24.9751C46.8778 25.4125 46.4762 26.0232 46.2895 26.715H43.012C41.9638 26.7202 40.9606 27.1513 40.223 27.9136C39.4854 28.6759 39.0739 29.7069 39.0789 30.7797ZM63.1579 57.9976C63.1566 58.2793 63.1007 58.5581 62.9933 58.8175C62.8859 59.077 62.7292 59.312 62.5323 59.509C62.3354 59.7059 62.1022 59.8609 61.8463 59.9648C61.5904 60.0687 61.3168 60.1196 61.0416 60.1144H43.012C42.738 60.1191 42.4659 60.0677 42.2117 59.9633C41.9574 59.8589 41.7261 59.7035 41.5313 59.5063C41.3365 59.3091 41.1822 59.0741 41.0774 58.815C40.9726 58.5559 40.9194 58.278 40.9211 57.9976V30.7797C40.9183 30.496 40.9702 30.2146 41.0738 29.9514C41.1774 29.6883 41.3307 29.4487 41.5249 29.2462C41.7192 29.0438 41.9505 28.8826 42.2056 28.7718C42.4608 28.661 42.7348 28.6027 43.012 28.6004H46.3254C46.5229 29.2677 46.9265 29.8515 47.4755 30.2643C48.0245 30.677 48.6895 30.8966 49.3707 30.8899H54.6829C55.3641 30.8966 56.029 30.6771 56.578 30.2643C57.127 29.8515 57.5305 29.2677 57.728 28.6004H61.0416C61.604 28.604 62.1422 28.8352 62.5387 29.2435C62.9352 29.6518 63.1578 30.2041 63.1579 30.7797V57.9976Z" fill="#0055D3"/>
<path d="M44.0722 40.3171H45.0363C45.2806 40.3171 45.5149 40.2178 45.6876 40.041C45.8603 39.8642 45.9574 39.6245 45.9574 39.3744C45.9574 39.1244 45.8603 38.8846 45.6876 38.7078C45.5149 38.531 45.2806 38.4317 45.0363 38.4317H45V35.8729H47.5404C47.5982 36.0624 47.7152 36.2273 47.8733 36.3423C48.0315 36.4573 48.2222 36.516 48.4161 36.5095C48.6606 36.5102 48.8955 36.4115 49.0691 36.2352C49.2427 36.0589 49.3409 35.8192 49.3421 35.5689V34.9346C49.34 34.683 49.2411 34.4425 49.0668 34.2651C48.8925 34.0878 48.6568 33.988 48.4111 33.9874H44.0722C43.9514 33.9881 43.8319 34.0131 43.7205 34.061C43.6091 34.109 43.5081 34.179 43.4232 34.2669C43.3383 34.3549 43.2711 34.4592 43.2256 34.5737C43.1801 34.6883 43.1571 34.8109 43.1579 34.9346V39.3755C43.1572 39.4989 43.1803 39.6212 43.2259 39.7354C43.2715 39.8496 43.3388 39.9534 43.4237 40.041C43.5087 40.1285 43.6097 40.1979 43.721 40.2453C43.8323 40.2927 43.9517 40.3171 44.0722 40.3171Z" fill="#0055D3"/>
<path d="M44.0789 48.9363H48.4211C48.6653 48.9363 48.8996 48.837 49.0723 48.6602C49.2451 48.4834 49.3421 48.2437 49.3421 47.9936V43.5493C49.3421 43.2993 49.2451 43.0595 49.0723 42.8827C48.8996 42.7059 48.6653 42.6066 48.4211 42.6066H44.0789C43.8347 42.6066 43.6004 42.7059 43.4277 42.8827C43.2549 43.0595 43.1579 43.2993 43.1579 43.5493V47.9936C43.1579 48.2437 43.2549 48.4834 43.4277 48.6602C43.6004 48.837 43.8347 48.9363 44.0789 48.9363ZM45 44.4921H47.5V47.0509H45V44.4921Z" fill="#0055D3"/>
<path d="M45.0365 55.6701H45V53.1113H47.4907C47.4954 53.3592 47.5949 53.5953 47.7678 53.769C47.9407 53.9427 48.1732 54.0401 48.4155 54.0404C48.6577 54.0406 48.8905 53.9437 49.0637 53.7703C49.2369 53.597 49.3369 53.3611 49.3421 53.1132V52.2048C49.3412 51.9499 49.2436 51.7054 49.0699 51.5227C48.8962 51.3401 48.66 51.2336 48.4111 51.2258H44.0722C43.8251 51.2343 43.591 51.3415 43.4201 51.5245C43.2492 51.7075 43.1551 51.9517 43.1579 52.2048V56.6457C43.1578 56.7674 43.1815 56.8879 43.2278 57.0001C43.274 57.1122 43.3418 57.2137 43.427 57.2986C43.5123 57.3834 43.6133 57.4499 43.7242 57.494C43.835 57.5382 43.9534 57.5591 44.0722 57.5555H45.0365C45.2807 57.5555 45.515 57.4562 45.6877 57.2794C45.8605 57.1026 45.9575 56.8629 45.9575 56.6128C45.9575 56.3628 45.8605 56.123 45.6877 55.9462C45.515 55.7694 45.2807 55.6701 45.0365 55.6701Z" fill="#0055D3"/>
<path d="M47.8343 37.9054L47.0138 37.0654C46.9283 36.9779 46.8267 36.9084 46.715 36.8611C46.6032 36.8137 46.4835 36.7893 46.3625 36.7893C46.2415 36.7893 46.1218 36.8137 46.01 36.8611C45.8983 36.9084 45.7967 36.9779 45.7112 37.0654C45.6257 37.153 45.5578 37.2569 45.5115 37.3713C45.4652 37.4857 45.4414 37.6083 45.4414 37.7321C45.4414 37.8559 45.4652 37.9785 45.5115 38.0928C45.5578 38.2072 45.6257 38.3112 45.7112 38.3987L47.1832 39.9052C47.2687 39.9927 47.3702 40.0622 47.482 40.1096C47.5937 40.1569 47.7135 40.1813 47.8345 40.1813C47.9554 40.1813 48.0752 40.1569 48.187 40.1096C48.2987 40.0622 48.4003 39.9927 48.4858 39.9052L51.8347 36.4774C52.0075 36.3006 52.1045 36.0608 52.1045 35.8108C52.1045 35.5607 52.0075 35.3209 51.8347 35.1441C51.662 34.9673 51.4277 34.868 51.1834 34.868C50.9391 34.868 50.7048 34.9673 50.5321 35.1441L47.8343 37.9054Z" fill="#0055D3"/>
<path d="M50.5317 52.5512L47.8343 55.312L47.0138 54.472C46.9283 54.3845 46.8267 54.315 46.715 54.2677C46.6032 54.2203 46.4835 54.1959 46.3625 54.1959C46.2415 54.1959 46.1218 54.2203 46.01 54.2677C45.8983 54.315 45.7967 54.3845 45.7112 54.472C45.6257 54.5596 45.5578 54.6635 45.5115 54.7779C45.4652 54.8923 45.4414 55.0149 45.4414 55.1387C45.4414 55.2625 45.4652 55.3851 45.5115 55.4995C45.5578 55.6138 45.6257 55.7178 45.7112 55.8053L47.1832 57.3118C47.2687 57.3993 47.3702 57.4688 47.482 57.5162C47.5937 57.5636 47.7135 57.5879 47.8345 57.5879C47.9554 57.5879 48.0752 57.5636 48.187 57.5162C48.2987 57.4688 48.4003 57.3993 48.4858 57.3118L51.8347 53.884C52.0075 53.7072 52.1045 53.4674 52.1045 53.2174C52.1045 52.9674 52.0075 52.7276 51.8347 52.5508C51.662 52.374 51.4277 52.2746 51.1834 52.2746C50.9391 52.2746 50.7048 52.374 50.5321 52.5508L50.5317 52.5512Z" fill="#0055D3"/>
<path d="M59.9812 36.2769H54.1962C53.9519 36.2769 53.7176 36.3762 53.5449 36.553C53.3722 36.7298 53.2751 36.9696 53.2751 37.2196C53.2751 37.4697 53.3722 37.7094 53.5449 37.8862C53.7176 38.063 53.9519 38.1623 54.1962 38.1623H59.9812C60.2255 38.1623 60.4597 38.063 60.6325 37.8862C60.8052 37.7094 60.9022 37.4697 60.9022 37.2196C60.9022 36.9696 60.8052 36.7298 60.6325 36.553C60.4597 36.3762 60.2255 36.2769 59.9812 36.2769Z" fill="#0055D3"/>
<path d="M59.9812 44.8961H54.1962C53.9519 44.8961 53.7176 44.9954 53.5449 45.1722C53.3722 45.349 53.2751 45.5888 53.2751 45.8388C53.2751 46.0889 53.3722 46.3286 53.5449 46.5054C53.7176 46.6822 53.9519 46.7815 54.1962 46.7815H59.9812C60.2255 46.7815 60.4597 46.6822 60.6325 46.5054C60.8052 46.3286 60.9022 46.0889 60.9022 45.8388C60.9022 45.5888 60.8052 45.349 60.6325 45.1722C60.4597 44.9954 60.2255 44.8961 59.9812 44.8961Z" fill="#0055D3"/>
<path d="M59.9812 53.5153H54.1962C53.9519 53.5153 53.7176 53.6146 53.5449 53.7914C53.3722 53.9682 53.2751 54.208 53.2751 54.458C53.2751 54.7081 53.3722 54.9478 53.5449 55.1246C53.7176 55.3014 53.9519 55.4007 54.1962 55.4007H59.9812C60.2255 55.4007 60.4597 55.3014 60.6325 55.1246C60.8052 54.9478 60.9022 54.7081 60.9022 54.458C60.9022 54.208 60.8052 53.9682 60.6325 53.7914C60.4597 53.6146 60.2255 53.5153 59.9812 53.5153Z" fill="#0055D3"/>
</svg>
