<svg width="61" height="62" viewBox="0 0 61 62" fill="none" xmlns="http://www.w3.org/2000/svg">
<path d="M29.4833 25.9536H33.55V28.0134H29.4833V25.9536Z" fill="#0055D3"/>
<path d="M41.6833 25.9536H45.75V28.0134H41.6833V25.9536Z" fill="#0055D3"/>
<path d="M41.6833 34.1928H45.75V36.2526H41.6833V34.1928Z" fill="#0055D3"/>
<path d="M29.4833 34.1928H33.55V36.2526H29.4833V34.1928Z" fill="#0055D3"/>
<path d="M29.4833 42.432H33.55V44.4918H29.4833V42.432Z" fill="#0055D3"/>
<path d="M41.6833 42.432H45.75V44.4918H41.6833V42.432Z" fill="#0055D3"/>
<path d="M40.6667 55.8206H42.7V57.8804H40.6667V55.8206Z" fill="#0055D3"/>
<path d="M57.95 16.0665L30.5 0L3.05 16.0665V41.4021H5.08333V17.3021L30.5 2.47165L55.9167 17.3021V59.9402H45.75C46.2583 59.3222 46.5631 58.601 46.6649 57.8804H50.8333C52.5614 57.8804 53.8833 56.5412 53.8833 54.7907V49.6412C53.8833 47.8902 52.5614 46.5515 50.8333 46.5515V24.9237C50.8333 23.2758 49.5114 21.834 47.8851 21.834H27.3482C25.7215 21.834 24.4 23.2758 24.4 24.9237V46.5515H22.3667V29.0433H20.3333V31.1031H15.453C14.3351 31.1031 13.3184 31.7206 12.8101 32.7505L5.4899 46.6541C5.1851 47.0665 5.08333 47.5814 5.08333 48.0964V54.7907C5.08333 56.5412 6.4048 57.8804 8.13333 57.8804H10.2684C10.4715 58.601 10.7768 59.3222 11.1833 59.9402H0V62H61V59.9402H57.95V16.0665ZM20.2316 57.8804H36.7018C36.9048 58.601 37.2101 59.3222 37.6167 59.9402H19.3167C19.7232 59.3222 20.028 58.601 20.2316 57.8804ZM38.6333 56.8505C38.6333 55.0995 39.9548 53.7608 41.6833 53.7608C43.4114 53.7608 44.7333 55.0995 44.7333 56.8505C44.7333 58.601 43.4114 59.9402 41.6833 59.9402C39.9548 59.9402 38.6333 58.601 38.6333 56.8505ZM38.6333 46.5515V40.3722H48.8V46.5515H38.6333ZM38.6333 32.133H48.8V38.3124H38.6333V32.133ZM36.6 38.3124H26.4333V32.133H36.6V38.3124ZM48.8 24.9237V30.0732H38.6333V23.8938H47.8851C48.3934 23.8938 48.8 24.4088 48.8 24.9237ZM27.3482 23.8938H36.6V30.0732H26.4333V24.9237C26.4333 24.4088 26.8399 23.8938 27.3482 23.8938ZM26.4333 40.3722H36.6V46.5515H26.4333V40.3722ZM14.5381 33.6778C14.7417 33.3686 15.0465 33.1629 15.453 33.1629H20.3333V46.5515H7.82804L14.5381 33.6778ZM7.11667 54.7907V48.6113H50.8333C51.4434 48.6113 51.85 49.0232 51.85 49.6412V54.7907C51.85 55.4083 51.4434 55.8206 50.8333 55.8206H46.6649C46.0548 53.0397 43.4114 51.1861 40.6667 51.8036C38.6333 52.216 37.1083 53.7608 36.7018 55.8206H20.2316C19.6215 53.0397 16.978 51.1861 14.2333 51.8036C12.2 52.216 10.675 53.7608 10.2684 55.8206H8.13333C7.52323 55.8206 7.11667 55.4083 7.11667 54.7907ZM12.2 56.8505C12.2 55.0995 13.5215 53.7608 15.25 53.7608C16.978 53.7608 18.3 55.0995 18.3 56.8505C18.3 58.601 16.978 59.9402 15.25 59.9402C13.5215 59.9402 12.2 58.601 12.2 56.8505Z" fill="#0055D3"/>
<path d="M14.2333 55.8206H16.2667V57.8804H14.2333V55.8206Z" fill="#0055D3"/>
<path d="M36.6 9.88711L30.5 6.17938L24.4 9.88711V18.7443H36.6V9.88711ZM26.4333 11.1227L29.4833 9.26907V16.6845H26.4333V11.1227ZM34.5667 16.6845H31.5167V9.26907L34.5667 11.1227V16.6845Z" fill="#0055D3"/>
</svg>
