<svg width="62" height="62" viewBox="0 0 62 62" fill="none" xmlns="http://www.w3.org/2000/svg">
<path d="M32.6981 51.873C33.1995 51.873 33.6063 51.4569 33.6063 50.9429V49.3089C33.6063 48.7949 33.1995 48.3783 32.6981 48.3783C32.1962 48.3783 31.7894 48.7949 31.7894 49.3089V50.9429C31.7894 51.4569 32.1962 51.873 32.6981 51.873Z" fill="#0055D3"/>
<path d="M50.3319 51.873C50.8338 51.873 51.2406 51.4569 51.2406 50.9429V49.3089C51.2406 48.7949 50.8338 48.3783 50.3319 48.3783C49.8305 48.3783 49.4237 48.7949 49.4237 49.3089V50.9429C49.4237 51.4569 49.8305 51.873 50.3319 51.873Z" fill="#0055D3"/>
<path d="M41.5148 52.7455C42.6255 52.7455 43.6675 52.2702 44.3752 51.4414C44.7053 51.0548 44.6665 50.4672 44.2891 50.1291C43.9111 49.7909 43.3374 49.8302 43.0072 50.2172C42.6448 50.6416 42.1009 50.8848 41.5148 50.8848C40.9287 50.8848 40.3852 50.6416 40.0229 50.2172C39.6927 49.8302 39.1189 49.7909 38.741 50.1291C38.363 50.4672 38.3247 51.0548 38.6549 51.4414C39.3621 52.2702 40.4046 52.7455 41.5148 52.7455Z" fill="#0055D3"/>
<path d="M12.9158 11.2779C12.9158 11.2779 21.1204 18.601 21.128 18.6078C22.5324 19.862 24.7854 18.8035 24.7854 16.904V15.4561C27.186 15.6203 29.4248 16.2491 31.3046 17.2921C33.8466 18.7032 35.83 21.1772 36.7467 24.0804C37.0438 25.0226 37.8995 25.6552 38.8749 25.6552C39.1071 25.6552 39.3398 25.6359 39.5716 25.6252C40.7882 25.5685 41.7622 24.4766 41.6969 23.2297L41.696 23.2127C41.573 20.9853 41.0408 18.756 40.1572 16.7655C38.4879 13.0049 35.6337 9.93649 31.4323 7.38501C29.3217 6.10321 27.0162 5.3693 24.7849 4.66155C24.7849 4.66155 24.7849 2.24522 24.7849 2.24328C24.7849 0.348676 22.5234 -0.70641 21.128 0.539541C21.128 0.539541 12.9277 7.85878 12.9158 7.86943C11.9215 8.75739 11.9234 10.3919 12.9158 11.2779ZM14.1097 9.27234C14.1097 9.27234 22.3101 1.95262 22.3219 1.94196C22.5707 1.72009 22.9685 1.90466 22.9685 2.24328V5.37123C22.9685 5.80335 23.2594 6.17878 23.6705 6.27712C23.845 6.31878 24.0399 6.37303 24.2192 6.4302C26.4571 7.13988 28.5705 7.81033 30.5057 8.98556C34.3769 11.3365 36.9932 14.1336 38.5035 17.5357C39.2949 19.3189 39.7717 21.3181 39.8819 23.315L39.8824 23.3285C39.8947 23.5591 39.7112 23.7563 39.4888 23.7665L38.8952 23.7941L38.8749 23.7945C38.6927 23.7945 38.5281 23.6768 38.4752 23.5083C37.4165 20.1546 35.1181 17.2925 32.1698 15.6561C29.8165 14.3501 26.9816 13.6244 23.9713 13.5571C23.443 13.5455 22.968 13.9161 22.968 14.4858V16.904C22.968 17.2373 22.5712 17.4282 22.3214 17.2053L14.1093 9.87545C13.9333 9.71753 13.9338 9.4293 14.1097 9.27234Z" fill="#0055D3"/>
<path d="M2.69902 43.5743H4.89574V58.2093C4.89574 60.2997 6.55605 62 8.59667 62H53.4033C55.4439 62 57.1042 60.2997 57.1042 58.2093V43.5743H59.3009C61.1788 43.5743 62.5085 41.5673 61.8122 39.7797L57.0394 27.5261C56.9018 27.1725 56.5673 26.9404 56.196 26.9404H51.3977C50.8963 26.9404 50.4895 27.357 50.4895 27.8705C50.4895 28.3845 50.8963 28.8011 51.3977 28.8011H55.5801C55.5801 28.8011 60.1141 40.4419 60.1245 40.4691C60.3544 41.0586 59.9182 41.7136 59.3009 41.7136H30.8477C30.4872 41.7136 30.1575 41.4849 30.0241 41.1419L25.2173 28.8006H47.7644C48.2658 28.8006 48.6726 28.3845 48.6726 27.8705C48.6726 27.3565 48.2658 26.9404 47.7644 26.9404H5.80442C5.43262 26.9404 5.09819 27.172 4.96054 27.5256C4.96054 27.5256 0.197675 39.755 0.188215 39.7797C-0.509021 41.5687 0.820647 43.5743 2.69902 43.5743ZM23.8767 53.4145C24.3786 53.4145 24.7854 52.9983 24.7854 52.4844V32.7139L28.3364 41.8318C28.7489 42.8902 29.7346 43.5743 30.8477 43.5743H55.2873V58.2093C55.2873 59.2736 54.442 60.1393 53.4033 60.1393H24.7854V56.2057C24.7854 55.6918 24.3786 55.2752 23.8767 55.2752C23.3753 55.2752 22.9685 55.6918 22.9685 56.2057V60.1393H8.59667C7.55791 60.1393 6.71262 59.2736 6.71262 58.2093V43.5743H16.9063C18.0051 43.5743 19.0103 42.8767 19.4175 41.8313L22.9685 32.7139V52.4844C22.9685 52.9983 23.3753 53.4145 23.8767 53.4145ZM1.87549 40.4691L6.41982 28.8011H22.5367C22.5367 28.8011 17.7303 41.1415 17.7298 41.1419C17.5959 41.4864 17.2691 41.7136 16.9063 41.7136C16.9063 41.7136 2.71794 41.7136 2.69902 41.7136C2.08173 41.7136 1.64654 41.0567 1.87549 40.4691Z" fill="#0055D3"/>
</svg>
