<svg width="56" height="62" viewBox="0 0 56 62" fill="none" xmlns="http://www.w3.org/2000/svg">
<path d="M54.9445 10.7317C45.8847 8.3827 36.7716 4.72492 28.5906 0.15385C28.2236 -0.0512835 27.7764 -0.0512835 27.4093 0.15385C18.9932 4.85583 10.3727 8.31586 1.05531 10.7317C0.521286 10.8702 0.148315 11.3522 0.148315 11.9039V25.2719C0.148315 39.0202 6.84387 48.1146 12.4607 53.3229C18.486 58.9101 25.4734 62.0001 28 62.0001C30.5264 62.0001 37.5138 58.9101 43.5392 53.3229C49.1561 48.1145 55.8516 39.0201 55.8516 25.2719V11.9039C55.8516 11.3523 55.4786 10.8702 54.9445 10.7317ZM41.8925 51.5472C38.5555 54.6415 35.3127 56.595 33.18 57.6888C30.4773 59.075 28.6014 59.5783 28.0002 59.5783C27.3988 59.5783 25.5229 59.0751 22.8202 57.6888C20.6875 56.5949 17.4446 54.6415 14.1076 51.5472C8.84423 46.6666 2.5702 38.1464 2.5702 25.2719V12.837C11.5267 10.4394 19.8625 7.08215 28.0002 2.59572C35.9315 6.96239 44.6901 10.4893 53.4296 12.8366V25.2719C53.4296 38.1464 47.1559 46.6666 41.8925 51.5472Z" fill="#0055D3"/>
<path d="M50.7406 13.9706C43.0709 11.7409 35.6117 8.71232 28.5698 4.96905C28.2142 4.78002 27.7876 4.78002 27.4319 4.96966C20.3797 8.72831 12.9204 11.7575 5.26103 13.9729C4.74311 14.1227 4.38649 14.5969 4.38649 15.1361V25.2719C4.38649 30.0039 5.28319 34.4944 7.05154 38.619C8.81104 42.7229 11.4353 46.4684 14.851 49.7514C17.2939 52.0994 20.1148 54.1685 23.0086 55.7351C23.527 56.0158 26.1937 57.4307 27.78 57.7236C27.8527 57.737 27.9263 57.7438 27.9998 57.7438C28.0734 57.7438 28.147 57.737 28.2196 57.7236C29.8055 57.4308 32.4724 56.0158 32.9909 55.7351C35.8845 54.1686 38.7053 52.0996 41.1485 49.7515C44.5643 46.4685 47.1884 42.723 48.9479 38.6191C50.7167 34.4944 51.6134 30.0039 51.6134 25.2719V15.1335C51.6134 14.595 51.2577 14.121 50.7406 13.9706ZM49.1914 25.2719C49.1914 34.1571 45.9208 41.8057 39.4705 48.0052C37.1821 50.2045 34.543 52.1409 31.8382 53.6052C30.6071 54.2716 28.945 55.0485 28 55.2925C27.0546 55.0485 25.3927 54.2717 24.1618 53.6052C21.4568 52.1409 18.8176 50.2045 16.5294 48.0052C10.079 41.8057 6.8085 34.1572 6.8085 25.2719V16.0428C14.117 13.8666 21.2394 10.9648 28.0021 7.40814C34.7542 10.9501 41.8758 13.8508 49.1914 16.0388V25.2719Z" fill="#0055D3"/>
<path d="M17.9523 43.3884L17.9229 43.3567C17.4689 42.8658 16.7026 42.836 16.2117 43.2901C15.7208 43.7442 15.6909 44.5104 16.1451 45.0013C16.1462 45.0026 16.1557 45.0128 16.16 45.0174C16.3985 45.2773 16.7249 45.4095 17.0526 45.4095C17.3412 45.4095 17.6308 45.3069 17.8622 45.0987C18.3593 44.6511 18.3997 43.8854 17.9523 43.3884Z" fill="#0055D3"/>
<path d="M24.4839 48.8851C23.0255 47.9648 21.6209 46.9037 20.3095 45.7313C19.811 45.2855 19.0454 45.3283 18.5996 45.8271C18.1539 46.3256 18.1967 47.0912 18.6953 47.5369C20.1067 48.7987 21.6195 49.9415 23.1914 50.9334C23.392 51.0601 23.6155 51.1204 23.8365 51.1204C24.2382 51.1204 24.6313 50.9204 24.8616 50.5555C25.2187 49.9897 25.0495 49.242 24.4839 48.8851Z" fill="#0055D3"/>
<path d="M38.6033 21.2383C37.8895 20.5244 36.9374 20.1313 35.923 20.1313C34.9085 20.1313 33.9566 20.5245 33.2427 21.2383L25.549 28.9322L22.757 26.1404C22.0432 25.4264 21.0914 25.0332 20.0768 25.0332C19.0624 25.0332 18.1105 25.4264 17.3964 26.1404C15.9186 27.6182 15.9186 30.023 17.3964 31.5008L22.8688 36.973C23.5826 37.6869 24.5346 38.0801 25.549 38.0801C26.5635 38.0801 27.5154 37.6869 28.2293 36.973L38.6033 26.5989C39.3173 25.8851 39.7104 24.9332 39.7104 23.9186C39.7104 22.9041 39.3173 21.9523 38.6033 21.2383ZM36.8907 24.8864L26.5167 35.2605C26.2601 35.5169 25.9165 35.6582 25.549 35.6582C25.1814 35.6582 24.8377 35.5171 24.5812 35.2605L19.1092 29.7884C18.8527 29.532 18.7115 29.1883 18.7115 28.8208C18.7114 28.4531 18.8527 28.1095 19.1093 27.853C19.3658 27.5965 19.7094 27.4553 20.0769 27.4553C20.4445 27.4553 20.788 27.5965 21.0446 27.853L24.6928 31.5011C25.1657 31.9739 25.9325 31.9739 26.4053 31.5011L34.9553 22.951C35.2118 22.6945 35.5554 22.5533 35.923 22.5533C36.2905 22.5533 36.6342 22.6946 36.8907 22.9511C37.1471 23.2076 37.2883 23.5512 37.2883 23.9188C37.2883 24.2864 37.1471 24.6301 36.8907 24.8864Z" fill="#0055D3"/>
</svg>
