<svg width="53" height="62" viewBox="0 0 53 62" fill="none" xmlns="http://www.w3.org/2000/svg">
<path d="M51.015 10.6783L32.3635 0.428903C30.5942 -0.543666 28.1614 0.204464 27.2031 1.99998L16.2924 22.5735H3.02256C1.32698 22.5735 0 23.9202 0 25.6409V58.9327C0 60.6534 1.32698 62 3.02256 62H45.4122C47.1077 62 48.4347 60.6534 48.4347 58.9327V51.1521H49.688C50.3515 51.1521 50.8675 50.6284 50.8675 49.9551V41.0524C50.8675 40.379 50.3515 39.8554 49.688 39.8554H48.4347V31.1022C48.4347 29.6808 47.4026 28.409 46.0757 28.1097L52.5631 15.9152C53.5215 14.0449 52.858 11.7257 51.015 10.6783ZM37.7452 6.11469L26.0973 28.0349H22.7798L35.2387 4.76806L37.7452 6.11469ZM29.341 3.12217C29.7096 2.44885 30.5942 2.1496 31.2577 2.52367L33.1007 3.57105L20.1258 28.0349H16.0712L29.341 3.12217ZM2.28535 25.5661C2.28535 25.3416 2.58024 24.9676 2.94884 24.9676H14.9654L13.3435 27.9601H2.94884C2.72768 27.9601 2.50652 27.9601 2.28535 28.0349V25.5661ZM46.0019 58.9327C46.0019 59.3067 45.707 59.606 45.3384 59.606H2.94884C2.58024 59.606 2.28535 59.3067 2.28535 58.9327V31.1022C2.28535 30.7282 2.58024 30.4289 2.94884 30.4289H45.2647C45.6333 30.4289 45.9282 30.7282 45.9282 31.1022V39.8554H41.4312C39.4408 39.8554 37.8926 41.5012 37.8926 43.4464V47.5611C37.8926 49.581 39.5145 51.1521 41.4312 51.1521H46.0019V58.9327ZM48.4347 42.2494V48.7581H41.4312C40.7677 48.7581 40.2517 48.2344 40.2517 47.5611V43.4464C40.2517 42.7731 40.7677 42.2494 41.4312 42.2494H48.4347ZM50.4252 14.7182L43.348 28.0349H28.7512L39.8094 7.3117L49.8354 12.8479C50.5726 13.1471 50.7938 14.0449 50.4252 14.7182Z" fill="#0055D3"/>
<path d="M45.9282 13.596L45.3384 13.2967C43.864 12.4738 41.8736 13.0723 41.0626 14.5686L40.3254 15.99C39.9568 16.7381 39.8094 17.6359 40.1042 18.4588C40.3254 19.2818 40.9152 19.9551 41.6524 20.3292L42.2422 20.6284C42.6845 20.8528 43.2005 21.0025 43.7166 21.0025C44.8961 21.0025 45.9282 20.3292 46.518 19.3566L47.2552 17.9351C47.9924 16.3641 47.4026 14.4189 45.9282 13.596ZM45.1173 16.8129L44.3801 18.2344C44.1589 18.6085 43.6429 18.7581 43.2743 18.5336L42.6845 18.1596C42.537 18.0848 42.3896 17.8603 42.3159 17.7107C42.2422 17.4863 42.2422 17.2618 42.3896 17.1122L43.1268 15.6908C43.2743 15.4663 43.5691 15.2419 43.864 15.2419C44.0115 15.2419 44.0852 15.2419 44.2326 15.3167L44.8224 15.6159C45.1173 15.9152 45.2647 16.3641 45.1173 16.8129Z" fill="#0055D3"/>
</svg>
