<svg width="61" height="62" viewBox="0 0 61 62" fill="none" xmlns="http://www.w3.org/2000/svg">
<path d="M37.3108 25.2408L28.1408 34.0395L23.7398 29.4401C23.2519 28.9298 22.4486 28.9182 21.9468 29.4138C21.4445 29.9099 21.433 30.7256 21.9209 31.2358L27.1993 36.7402C27.6897 37.2414 28.4821 37.2586 28.9929 36.7786L39.0791 27.1143C39.324 26.8796 39.4671 26.5556 39.4765 26.2139C39.486 25.8722 39.3613 25.5406 39.1298 25.2923C38.6389 24.774 37.8295 24.7513 37.3108 25.2408Z" fill="#0055D3"/>
<path d="M30.5062 11.6999C20.026 11.6999 11.5043 20.3567 11.5043 31.0032C11.5043 41.6501 20.026 50.3069 30.5062 50.3069C40.9869 50.3069 49.5086 41.6501 49.5086 31.0032C49.5086 20.3567 40.9869 11.6999 30.5062 11.6999ZM30.5062 47.7228C21.4251 47.7228 14.0481 40.2157 14.0481 31.0032C14.0481 21.7906 21.4251 14.284 30.5062 14.284C39.5963 14.284 46.9648 21.7694 46.9648 31.0032C46.9648 40.2369 39.5963 47.7228 30.5062 47.7228Z" fill="#0055D3"/>
<path d="M56.6566 23.8968L57.0764 16.2347C57.1057 15.7204 56.8304 15.2374 56.3768 15.0073L49.6611 11.5576L46.2653 4.73535C46.0342 4.27858 45.5618 4.00048 45.057 4.02471L37.5016 4.43858L31.2057 0.213115C30.7815 -0.0710384 30.2315 -0.0710384 29.8067 0.213115L23.5108 4.43858L15.9689 4.01209C15.4621 3.98181 14.9871 4.26142 14.7606 4.72273L11.3642 11.5449L4.649 14.9947C4.19887 15.2288 3.92561 15.7088 3.94946 16.2221L4.36878 23.8842L0.209788 30.2799C-0.0699293 30.7109 -0.0699293 31.2696 0.209788 31.7012L4.35636 38.1095L3.93654 45.7716C3.90722 46.2859 4.18197 46.7689 4.63608 46.999L11.3518 50.4487L14.7476 57.271C14.9782 57.7282 15.4507 58.0058 15.9559 57.9816L23.4984 57.5551L29.7942 61.7801C30.2161 62.0733 30.7715 62.0733 31.1933 61.7801L37.4892 57.5551L45.0316 57.9816C45.5379 58.0114 46.0129 57.7318 46.2399 57.271L49.6358 50.4487L56.3515 46.999C56.8011 46.7643 57.0749 46.2849 57.051 45.7716L56.6312 38.1095L60.7902 31.7138C61.0699 31.2828 61.0699 30.7235 60.7902 30.2925L56.6566 23.8968ZM54.2906 37.0501C54.1356 37.2813 54.0636 37.5594 54.0874 37.8385L54.4814 45.0867L48.1349 48.3426C47.8929 48.4657 47.6967 48.6656 47.5754 48.9114L44.3699 55.3586L37.2348 54.9584C36.9616 54.9483 36.6918 55.0199 36.4588 55.1648L30.5062 59.1576L24.5541 55.1648C24.3475 55.023 24.104 54.9462 23.8546 54.9452H23.791L16.6555 55.346L13.4504 48.8983C13.3292 48.6525 13.1329 48.4531 12.8905 48.33L6.531 45.0867L6.92549 37.8385C6.93543 37.5609 6.86438 37.2868 6.72179 37.0501L2.79183 31.0032L6.72179 24.9562C6.8773 24.7255 6.94934 24.4469 6.92549 24.1683L6.531 16.9196L12.8781 13.6637C13.12 13.5406 13.3163 13.3412 13.4375 13.0954L16.6426 6.64771L23.7781 7.04845C24.0508 7.05804 24.3206 6.98637 24.5541 6.84152L30.5062 2.84923L36.4588 6.84152C36.6863 6.99949 36.9606 7.07267 37.2348 7.04845L44.3699 6.64771L47.5754 13.0954C47.6967 13.3412 47.8929 13.5406 48.1349 13.6637L54.4814 16.9196L54.0874 24.1683C54.0775 24.4454 54.1485 24.7195 54.2906 24.9562L58.2211 31.0032L54.2906 37.0501Z" fill="#0055D3"/>
</svg>
