<svg width="38" height="36" viewBox="0 0 38 36" fill="none" xmlns="http://www.w3.org/2000/svg">
<path d="M19.9353 30.1198C20.241 30.1198 20.489 29.8782 20.489 29.5798V28.631C20.489 28.3326 20.241 28.0907 19.9353 28.0907C19.6293 28.0907 19.3813 28.3326 19.3813 28.631V29.5798C19.3813 29.8782 19.6293 30.1198 19.9353 30.1198Z" fill="white"/>
<path d="M30.6862 30.1198C30.9922 30.1198 31.2402 29.8782 31.2402 29.5798V28.631C31.2402 28.3326 30.9922 28.0907 30.6862 28.0907C30.3806 28.0907 30.1325 28.3326 30.1325 28.631V29.5798C30.1325 29.8782 30.3806 30.1198 30.6862 30.1198Z" fill="white"/>
<path d="M25.3106 30.6264C25.9878 30.6264 26.6231 30.3505 27.0545 29.8692C27.2558 29.6447 27.2322 29.3035 27.002 29.1072C26.7716 28.9109 26.4218 28.9336 26.2205 29.1584C25.9996 29.4048 25.6679 29.546 25.3106 29.546C24.9533 29.546 24.622 29.4048 24.401 29.1584C24.1997 28.9336 23.8499 28.9109 23.6195 29.1072C23.3891 29.3035 23.3657 29.6447 23.567 29.8692C23.9982 30.3505 24.6338 30.6264 25.3106 30.6264Z" fill="white"/>
<path d="M7.87449 6.54844C7.87449 6.54844 12.8766 10.8006 12.8813 10.8045C13.7375 11.5327 15.1111 10.9181 15.1111 9.81525V8.9745C16.5747 9.06985 17.9396 9.43495 19.0857 10.0406C20.6355 10.8599 21.8447 12.2964 22.4037 13.9821C22.5848 14.5292 23.1065 14.8966 23.7011 14.8966C23.8427 14.8966 23.9846 14.8853 24.1259 14.8792C24.8677 14.8462 25.4615 14.2122 25.4217 13.4882L25.4211 13.4784C25.3461 12.185 25.0217 10.8906 24.483 9.7348C23.4652 7.55121 21.7251 5.76958 19.1636 4.28807C17.8768 3.5438 16.4712 3.11766 15.1108 2.7067C15.1108 2.7067 15.1108 1.30367 15.1108 1.30255C15.1108 0.202457 13.732 -0.410174 12.8813 0.313282C12.8813 0.313282 7.8817 4.56316 7.87449 4.56935C7.2683 5.08494 7.26945 6.03398 7.87449 6.54844ZM8.60239 5.38394C8.60239 5.38394 13.6019 1.13378 13.6092 1.12759C13.7609 0.998764 14.0034 1.10593 14.0034 1.30255V3.11878C14.0034 3.36968 14.1807 3.58768 14.4314 3.64478C14.5378 3.66897 14.6566 3.70047 14.7659 3.73366C16.1303 4.14574 17.4188 4.53503 18.5986 5.21742C20.9588 6.58248 22.5539 8.2066 23.4747 10.182C23.9572 11.2174 24.2479 12.3783 24.3151 13.5377L24.3154 13.5456C24.3229 13.6795 24.211 13.794 24.0755 13.7999L23.7135 13.8159L23.7011 13.8162C23.5901 13.8162 23.4897 13.7478 23.4574 13.65C22.812 11.7026 21.4107 10.0408 19.6132 9.09066C18.1784 8.33233 16.4501 7.91097 14.6148 7.87187C14.2926 7.86512 14.0031 8.0803 14.0031 8.41109V9.81525C14.0031 10.0088 13.7611 10.1196 13.6089 9.9902L8.60211 5.73414C8.49482 5.64244 8.49511 5.47508 8.60239 5.38394Z" fill="white"/>
<path d="M1.64553 25.3012H2.98482V33.799C2.98482 35.0127 3.99707 36 5.24119 36H32.5588C33.8029 36 34.8152 35.0127 34.8152 33.799V25.3012H36.1544C37.2994 25.3012 38.11 24.1358 37.6855 23.0979L34.7756 15.9829C34.6917 15.7776 34.4878 15.6428 34.2614 15.6428H31.336C31.0303 15.6428 30.7823 15.8847 30.7823 16.1829C30.7823 16.4813 31.0303 16.7232 31.336 16.7232H33.886C33.886 16.7232 36.6502 23.4824 36.6565 23.4982C36.7967 23.8405 36.5308 24.2208 36.1544 24.2208H18.8071C18.5874 24.2208 18.3864 24.088 18.305 23.8889L15.3744 16.7229H29.1209C29.4266 16.7229 29.6746 16.4813 29.6746 16.1829C29.6746 15.8844 29.4266 15.6428 29.1209 15.6428H3.53882C3.31215 15.6428 3.10825 15.7773 3.02433 15.9826C3.02433 15.9826 0.120518 23.0836 0.11475 23.0979C-0.310339 24.1367 0.50033 25.3012 1.64553 25.3012ZM14.5571 31.0149C14.8631 31.0149 15.1111 30.7732 15.1111 30.4748V18.9951L17.2761 24.2894C17.5275 24.904 18.1285 25.3012 18.8071 25.3012H33.7074V33.799C33.7074 34.417 33.1921 34.9196 32.5588 34.9196H15.1111V32.6356C15.1111 32.3372 14.8631 32.0953 14.5571 32.0953C14.2514 32.0953 14.0034 32.3372 14.0034 32.6356V34.9196H5.24119C4.60789 34.9196 4.09253 34.417 4.09253 33.799V25.3012H10.3074C10.9773 25.3012 11.5901 24.8961 11.8384 24.2891L14.0034 18.9951V30.4748C14.0034 30.7732 14.2514 31.0149 14.5571 31.0149ZM1.14344 23.4982L3.91402 16.7232H13.7401C13.7401 16.7232 10.8097 23.8886 10.8095 23.8889C10.7278 24.0889 10.5286 24.2208 10.3074 24.2208C10.3074 24.2208 1.65707 24.2208 1.64553 24.2208C1.26918 24.2208 1.00386 23.8394 1.14344 23.4982Z" fill="white"/>
</svg>
