<svg width="37" height="36" viewBox="0 0 37 36" fill="none" xmlns="http://www.w3.org/2000/svg">
<path d="M34.6528 15.5119H32.7922C32.6862 15.1103 32.4582 14.7557 32.1426 14.5017C31.8271 14.2478 31.4411 14.1083 31.0431 14.1043H29.0569V9.01957C29.0591 8.92445 29.0372 8.83042 28.9932 8.74712C28.9493 8.66382 28.885 8.59425 28.8069 8.54554L14.7956 0.0733643C14.7167 0.0253121 14.627 0 14.5356 0C14.4443 0 14.3546 0.0253121 14.2756 0.0733643L0.259946 8.54554C0.180642 8.59366 0.114857 8.66282 0.0692204 8.74604C0.0235841 8.82927 -0.00029054 8.92361 2.66848e-06 9.01957V25.964C5.00009e-06 26.0601 0.0241661 26.1545 0.0700579 26.2377C0.11595 26.3209 0.181955 26.39 0.26144 26.438L14.2785 34.9102C14.358 34.9583 14.4482 34.9836 14.5399 34.9836C14.6341 34.9836 14.7267 34.9584 14.8089 34.9102L22.1848 30.4563V33.676C22.1841 33.9825 22.2414 34.2862 22.3535 34.5694C22.4656 34.8526 22.6302 35.1097 22.8379 35.3258C23.0455 35.5419 23.2921 35.7128 23.5632 35.8285C23.8344 35.9442 24.1248 36.0025 24.4176 35.9999H34.6528C34.9464 36.0028 35.2376 35.9448 35.5097 35.8294C35.7818 35.714 36.0294 35.5434 36.2382 35.3274C36.4471 35.1114 36.6131 34.8543 36.7267 34.5709C36.8402 34.2875 36.8991 33.9833 36.9 33.676V17.8721C36.8997 17.2476 36.663 16.6486 36.2419 16.2063C35.8207 15.764 35.2494 15.5143 34.6528 15.5119ZM31.0617 15.1991C31.263 15.1991 31.456 15.2828 31.5983 15.4319C31.7407 15.5809 31.8207 15.783 31.8207 15.9937V16.0467C31.8207 16.2575 31.7407 16.4596 31.5983 16.6086C31.456 16.7576 31.263 16.8413 31.0617 16.8413H28.0232C27.8219 16.8413 27.6288 16.7576 27.4865 16.6086C27.3441 16.4596 27.2642 16.2575 27.2642 16.0467V15.9937C27.2642 15.783 27.3441 15.5809 27.4865 15.4319C27.6288 15.2828 27.8219 15.1991 28.0232 15.1991H31.0617ZM14.5399 1.17948L20.3643 4.69982L7.3939 12.5394L1.5696 9.01903L14.5399 1.17948ZM14.0429 33.488L1.04575 25.6479V9.96648L14.0429 17.8066V33.488ZM14.5399 16.8585L8.43964 13.1714L21.4101 5.33189L27.5107 9.01903L14.5399 16.8585ZM22.1848 17.8721V29.1922L15.0887 33.488V17.8066L28.0111 9.96648V14.1043H28.0273C27.6293 14.1083 27.2433 14.2477 26.9278 14.5017C26.6122 14.7556 26.3842 15.1103 26.2782 15.5119H24.4176C23.8225 15.5149 23.253 15.7653 22.8343 16.2079C22.4156 16.6505 22.1819 17.2492 22.1848 17.8721ZM35.8543 33.676C35.8535 33.8396 35.8218 34.0015 35.7608 34.1521C35.6998 34.3028 35.6109 34.4392 35.4991 34.5536C35.3873 34.668 35.2549 34.7579 35.1097 34.8183C34.9644 34.8786 34.8091 34.9081 34.6528 34.9051H24.4176C24.2621 34.9079 24.1076 34.878 23.9632 34.8174C23.8189 34.7568 23.6876 34.6666 23.577 34.5521C23.4664 34.4376 23.3788 34.3011 23.3193 34.1506C23.2598 34.0002 23.2297 33.8388 23.2306 33.676V17.8721C23.229 17.7074 23.2585 17.5439 23.3173 17.3912C23.3761 17.2384 23.4631 17.0992 23.5734 16.9817C23.6836 16.8642 23.815 16.7705 23.9598 16.7062C24.1047 16.6418 24.2602 16.608 24.4176 16.6067H26.2986C26.4107 16.9942 26.6398 17.3331 26.9515 17.5728C27.2631 17.8125 27.6406 17.9399 28.0273 17.9361H31.0431C31.4298 17.9399 31.8072 17.8125 32.1189 17.5728C32.4306 17.3331 32.6596 16.9942 32.7718 16.6067H34.6528C34.9721 16.6088 35.2776 16.743 35.5027 16.9801C35.7278 17.2172 35.8542 17.5378 35.8543 17.8721V33.676Z" fill="white"/>
<path d="M25.0195 23.41H25.5668C25.7054 23.41 25.8384 23.3523 25.9365 23.2496C26.0346 23.147 26.0896 23.0077 26.0896 22.8626C26.0896 22.7174 26.0346 22.5782 25.9365 22.4755C25.8384 22.3729 25.7054 22.3152 25.5668 22.3152H25.5462V20.8294H26.9883C27.0211 20.9395 27.0875 21.0352 27.1773 21.102C27.2671 21.1688 27.3753 21.2029 27.4854 21.1991C27.6243 21.1994 27.7576 21.1422 27.8562 21.0398C27.9547 20.9374 28.0104 20.7983 28.0111 20.6529V20.2846C28.01 20.1385 27.9538 19.9989 27.8548 19.8959C27.7559 19.7929 27.6221 19.735 27.4826 19.7346H25.0195C24.9509 19.735 24.883 19.7495 24.8198 19.7774C24.7566 19.8052 24.6992 19.8459 24.651 19.8969C24.6028 19.948 24.5647 20.0086 24.5388 20.0751C24.513 20.1416 24.4999 20.2128 24.5004 20.2846V22.8632C24.5 22.9348 24.5131 23.0059 24.539 23.0722C24.5649 23.1385 24.6031 23.1988 24.6513 23.2496C24.6996 23.3004 24.7569 23.3407 24.8201 23.3683C24.8833 23.3958 24.951 23.4099 25.0195 23.41Z" fill="white"/>
<path d="M25.0233 28.4147H27.4883C27.6269 28.4147 27.7599 28.357 27.858 28.2543C27.956 28.1517 28.0111 28.0124 28.0111 27.8673V25.2867C28.0111 25.1415 27.956 25.0023 27.858 24.8997C27.7599 24.797 27.6269 24.7393 27.4883 24.7393H25.0233C24.8846 24.7393 24.7516 24.797 24.6536 24.8997C24.5555 25.0023 24.5004 25.1415 24.5004 25.2867V27.8673C24.5004 28.0124 24.5555 28.1517 24.6536 28.2543C24.7516 28.357 24.8846 28.4147 25.0233 28.4147ZM25.5462 25.8341H26.9654V27.3199H25.5462V25.8341Z" fill="white"/>
<path d="M25.5668 32.3246H25.5462V30.8388H26.9601C26.9628 30.9828 27.0193 31.1199 27.1174 31.2207C27.2156 31.3216 27.3476 31.3781 27.4851 31.3783C27.6226 31.3784 27.7547 31.3221 27.8531 31.2215C27.9514 31.1208 28.0082 30.9838 28.0111 30.8399V30.3125C28.0106 30.1645 27.9552 30.0225 27.8566 29.9164C27.758 29.8104 27.6239 29.7486 27.4826 29.744H25.0195C24.8792 29.749 24.7463 29.8112 24.6493 29.9175C24.5522 30.0237 24.4988 30.1655 24.5004 30.3125V32.891C24.5003 32.9617 24.5138 33.0317 24.5401 33.0968C24.5663 33.1619 24.6048 33.2209 24.6532 33.2701C24.7016 33.3194 24.759 33.358 24.8219 33.3836C24.8848 33.4093 24.952 33.4214 25.0195 33.4194H25.5668C25.7055 33.4194 25.8385 33.3617 25.9366 33.259C26.0346 33.1564 26.0897 33.0171 26.0897 32.872C26.0897 32.7268 26.0346 32.5876 25.9366 32.4849C25.8385 32.3822 25.7055 32.3246 25.5668 32.3246Z" fill="white"/>
<path d="M27.1552 22.0096L26.6894 21.5219C26.6408 21.471 26.5832 21.4307 26.5197 21.4032C26.4563 21.3757 26.3883 21.3615 26.3196 21.3615C26.251 21.3615 26.183 21.3757 26.1195 21.4032C26.0561 21.4307 25.9984 21.471 25.9499 21.5219C25.9013 21.5727 25.8628 21.633 25.8365 21.6995C25.8103 21.7659 25.7967 21.8371 25.7967 21.9089C25.7967 21.9808 25.8103 22.052 25.8365 22.1184C25.8628 22.1848 25.9013 22.2452 25.9499 22.296L26.7855 23.1707C26.8341 23.2216 26.8917 23.2619 26.9552 23.2894C27.0186 23.3169 27.0866 23.3311 27.1553 23.3311C27.2239 23.3311 27.2919 23.3169 27.3554 23.2894C27.4188 23.2619 27.4765 23.2216 27.525 23.1707L29.4262 21.1804C29.5242 21.0778 29.5793 20.9385 29.5793 20.7934C29.5793 20.6482 29.5242 20.5089 29.4262 20.4063C29.3281 20.3036 29.1951 20.2459 29.0564 20.2459C28.9178 20.2459 28.7848 20.3036 28.6867 20.4063L27.1552 22.0096Z" fill="white"/>
<path d="M28.6865 30.5136L27.1552 32.1166L26.6894 31.6289C26.6408 31.5781 26.5832 31.5378 26.5197 31.5103C26.4563 31.4827 26.3883 31.4686 26.3196 31.4686C26.251 31.4686 26.183 31.4827 26.1195 31.5103C26.0561 31.5378 25.9984 31.5781 25.9499 31.6289C25.9013 31.6798 25.8628 31.7401 25.8365 31.8065C25.8103 31.8729 25.7967 31.9441 25.7967 32.016C25.7967 32.0879 25.8103 32.1591 25.8365 32.2255C25.8628 32.2919 25.9013 32.3523 25.9499 32.4031L26.7855 33.2778C26.8341 33.3287 26.8917 33.369 26.9552 33.3965C27.0186 33.424 27.0866 33.4382 27.1553 33.4382C27.2239 33.4382 27.2919 33.424 27.3554 33.3965C27.4188 33.369 27.4765 33.3287 27.525 33.2778L29.4262 31.2875C29.5242 31.1848 29.5793 31.0456 29.5793 30.9004C29.5793 30.7552 29.5242 30.616 29.4262 30.5133C29.3281 30.4107 29.1951 30.353 29.0564 30.353C28.9178 30.353 28.7848 30.4107 28.6867 30.5133L28.6865 30.5136Z" fill="white"/>
<path d="M34.0509 21.064H30.7668C30.6281 21.064 30.4951 21.1217 30.397 21.2243C30.299 21.327 30.2439 21.4662 30.2439 21.6114C30.2439 21.7566 30.299 21.8958 30.397 21.9985C30.4951 22.1011 30.6281 22.1588 30.7668 22.1588H34.0509C34.1895 22.1588 34.3225 22.1011 34.4206 21.9985C34.5186 21.8958 34.5737 21.7566 34.5737 21.6114C34.5737 21.4662 34.5186 21.327 34.4206 21.2243C34.3225 21.1217 34.1895 21.064 34.0509 21.064Z" fill="white"/>
<path d="M34.0509 26.0687H30.7668C30.6281 26.0687 30.4951 26.1264 30.397 26.229C30.299 26.3317 30.2439 26.4709 30.2439 26.6161C30.2439 26.7613 30.299 26.9005 30.397 27.0032C30.4951 27.1058 30.6281 27.1635 30.7668 27.1635H34.0509C34.1895 27.1635 34.3225 27.1058 34.4206 27.0032C34.5186 26.9005 34.5737 26.7613 34.5737 26.6161C34.5737 26.4709 34.5186 26.3317 34.4206 26.229C34.3225 26.1264 34.1895 26.0687 34.0509 26.0687Z" fill="white"/>
<path d="M34.0509 31.0734H30.7668C30.6281 31.0734 30.4951 31.1311 30.397 31.2337C30.299 31.3364 30.2439 31.4756 30.2439 31.6208C30.2439 31.766 30.299 31.9052 30.397 32.0079C30.4951 32.1105 30.6281 32.1682 30.7668 32.1682H34.0509C34.1895 32.1682 34.3225 32.1105 34.4206 32.0079C34.5186 31.9052 34.5737 31.766 34.5737 31.6208C34.5737 31.4756 34.5186 31.3364 34.4206 31.2337C34.3225 31.1311 34.1895 31.0734 34.0509 31.0734Z" fill="white"/>
</svg>
