<svg width="34" height="36" viewBox="0 0 34 36" fill="none" xmlns="http://www.w3.org/2000/svg">
<path d="M32.7577 6.2313C27.3417 4.86737 21.8938 2.7435 17.0031 0.0893325C16.7837 -0.0297775 16.5163 -0.0297775 16.2969 0.0893325C11.2656 2.81951 6.11223 4.82856 0.542212 6.2313C0.222966 6.31174 0 6.59158 0 6.91193V14.674C0 22.6569 4.00267 27.9375 7.36047 30.9617C10.9625 34.2058 15.1396 36 16.65 36C18.1603 36 22.3375 34.2058 25.9395 30.9617C29.2973 27.9374 33.3 22.6568 33.3 14.674V6.91193C33.3 6.59165 33.077 6.31174 32.7577 6.2313ZM24.9551 29.9306C22.9602 31.7273 21.0216 32.8616 19.7467 33.4967C18.1309 34.3016 17.0095 34.5938 16.6501 34.5938C16.2906 34.5938 15.1692 34.3017 13.5535 33.4967C12.2785 32.8615 10.3399 31.7273 8.345 29.9306C5.1985 27.0967 1.44783 22.1495 1.44783 14.674V7.45376C6.80212 6.06157 11.7853 4.11221 16.6501 1.50719C21.3915 4.04267 26.6275 6.09053 31.8521 7.45348V14.674C31.8521 22.1495 28.1016 27.0967 24.9551 29.9306Z" fill="white"/>
<path d="M30.2446 8.11196C25.6596 6.81729 21.2003 5.05876 16.9906 2.88525C16.7781 2.7755 16.5231 2.7755 16.3104 2.88561C12.0945 5.06805 7.63527 6.82692 3.05643 8.1133C2.74682 8.20027 2.53362 8.47562 2.53362 8.78872V14.674C2.53362 17.4216 3.06968 20.029 4.12681 22.4239C5.17866 24.8068 6.74746 26.9816 8.7894 28.8879C10.2498 30.2512 11.9362 31.4527 13.6661 32.3623C13.976 32.5253 15.5702 33.3468 16.5185 33.5169C16.5619 33.5247 16.6059 33.5286 16.6499 33.5286C16.6939 33.5286 16.7379 33.5247 16.7813 33.5169C17.7294 33.3469 19.3237 32.5253 19.6336 32.3623C21.3634 31.4527 23.0497 30.2514 24.5103 28.8879C26.5523 26.9817 28.121 24.8069 29.1729 22.424C30.2303 20.029 30.7664 17.4216 30.7664 14.674V8.78717C30.7664 8.47449 30.5537 8.19929 30.2446 8.11196ZM29.3185 14.674C29.3185 19.8331 27.3632 24.2743 23.5072 27.8739C22.1392 29.151 20.5615 30.2753 18.9445 31.1256C18.2085 31.5125 17.215 31.9636 16.65 32.1053C16.0849 31.9636 15.0914 31.5126 14.3555 31.1256C12.7384 30.2753 11.1607 29.151 9.79275 27.8739C5.93667 24.2743 3.98152 19.8332 3.98152 14.674V9.31515C8.35064 8.05156 12.6085 6.36665 16.6513 4.3015C20.6877 6.35815 24.9451 8.04242 29.3185 9.31283V14.674Z" fill="white"/>
<path d="M10.6434 25.1933L10.6258 25.1748C10.3544 24.8898 9.89634 24.8725 9.60287 25.1362C9.30939 25.3998 9.29151 25.8447 9.56305 26.1298C9.5637 26.1305 9.56935 26.1364 9.57196 26.1391C9.7145 26.29 9.90966 26.3668 10.1056 26.3668C10.2781 26.3668 10.4512 26.3072 10.5896 26.1863C10.8867 25.9264 10.9108 25.4818 10.6434 25.1933Z" fill="white"/>
<path d="M14.5481 28.3849C13.6762 27.8505 12.8365 27.2344 12.0525 26.5536C11.7546 26.2948 11.2968 26.3196 11.0304 26.6093C10.7639 26.8987 10.7895 27.3433 11.0876 27.6021C11.9313 28.3347 12.8357 28.9983 13.7754 29.5742C13.8953 29.6478 14.0289 29.6828 14.161 29.6828C14.4012 29.6828 14.6362 29.5667 14.7739 29.3548C14.9874 29.0263 14.8861 28.5921 14.5481 28.3849Z" fill="white"/>
<path d="M22.9888 12.3319C22.562 11.9174 21.9929 11.6891 21.3865 11.6891C20.78 11.6891 20.2109 11.9174 19.7841 12.3319L15.1848 16.7993L13.5157 15.1783C13.089 14.7637 12.52 14.5354 11.9135 14.5354C11.307 14.5354 10.738 14.7637 10.3111 15.1783C9.42761 16.0364 9.42761 17.4327 10.3111 18.2908L13.5825 21.4682C14.0093 21.8827 14.5783 22.111 15.1848 22.111C15.7913 22.111 16.3603 21.8827 16.7871 21.4682L22.9888 15.4445C23.4156 15.03 23.6506 14.4773 23.6506 13.8882C23.6506 13.2991 23.4156 12.7465 22.9888 12.3319ZM21.9649 14.4502L15.7633 20.4738C15.6099 20.6227 15.4045 20.7048 15.1848 20.7048C14.965 20.7048 14.7595 20.6228 14.6062 20.4738L11.335 17.2965C11.1817 17.1476 11.0972 16.948 11.0972 16.7346C11.0972 16.5212 11.1817 16.3216 11.335 16.1727C11.4884 16.0238 11.6938 15.9418 11.9135 15.9418C12.1332 15.9418 12.3386 16.0238 12.492 16.1727L14.6729 18.2909C14.9556 18.5655 15.414 18.5655 15.6967 18.2909L20.808 13.3264C20.9613 13.1774 21.1667 13.0954 21.3865 13.0954C21.6062 13.0954 21.8116 13.1775 21.9649 13.3264C22.1183 13.4753 22.2027 13.6749 22.2027 13.8883C22.2027 14.1018 22.1183 14.3013 21.9649 14.4502Z" fill="white"/>
</svg>
