<svg width="36" height="36" viewBox="0 0 36 36" fill="none" xmlns="http://www.w3.org/2000/svg">
<path d="M17.4 15.0698H19.8V16.2658H17.4V15.0698Z" fill="white"/>
<path d="M24.6 15.0698H27V16.2658H24.6V15.0698Z" fill="white"/>
<path d="M24.6 19.8539H27V21.0499H24.6V19.8539Z" fill="white"/>
<path d="M17.4 19.8539H19.8V21.0499H17.4V19.8539Z" fill="white"/>
<path d="M17.4 24.6379H19.8V25.8339H17.4V24.6379Z" fill="white"/>
<path d="M24.6 24.6379H27V25.8339H24.6V24.6379Z" fill="white"/>
<path d="M24 32.412H25.2V33.608H24V32.412Z" fill="white"/>
<path d="M34.2 9.32893L18 0L1.8 9.32893V24.0399H3V10.0464L18 1.43515L33 10.0464V34.804H27C27.3 34.4451 27.4799 34.0264 27.5399 33.608H30C31.0198 33.608 31.8 32.8304 31.8 31.814V28.8239C31.8 27.8072 31.0198 27.0299 30 27.0299V14.4718C30 13.515 29.2198 12.6778 28.2601 12.6778H16.1399C15.1799 12.6778 14.4 13.515 14.4 14.4718V27.0299H13.2V16.8638H12V18.0599H9.11982C8.46006 18.0599 7.86006 18.4184 7.56006 19.0164L3.23994 27.0895C3.06006 27.3289 3 27.6279 3 27.9269V31.814C3 32.8304 3.77988 33.608 4.8 33.608H6.06006C6.17988 34.0264 6.36006 34.4451 6.6 34.804H0V36H36V34.804H34.2V9.32893ZM11.9399 33.608H21.6601C21.7799 34.0264 21.9601 34.4451 22.2 34.804H11.4C11.6399 34.4451 11.8198 34.0264 11.9399 33.608ZM22.8 33.01C22.8 31.9933 23.5799 31.216 24.6 31.216C25.6198 31.216 26.4 31.9933 26.4 33.01C26.4 34.0264 25.6198 34.804 24.6 34.804C23.5799 34.804 22.8 34.0264 22.8 33.01ZM22.8 27.0299V23.4419H28.8V27.0299H22.8ZM22.8 18.6579H28.8V22.2459H22.8V18.6579ZM21.6 22.2459H15.6V18.6579H21.6V22.2459ZM28.8 14.4718V17.4619H22.8V13.8738H28.2601C28.5601 13.8738 28.8 14.1728 28.8 14.4718ZM16.1399 13.8738H21.6V17.4619H15.6V14.4718C15.6 14.1728 15.8399 13.8738 16.1399 13.8738ZM15.6 23.4419H21.6V27.0299H15.6V23.4419ZM8.57988 19.5549C8.7 19.3753 8.87988 19.2559 9.11982 19.2559H12V27.0299H4.61982L8.57988 19.5549ZM4.2 31.814V28.2259H30C30.3601 28.2259 30.6 28.4651 30.6 28.8239V31.814C30.6 32.1725 30.3601 32.412 30 32.412H27.5399C27.1799 30.7972 25.6198 29.7209 24 30.0795C22.8 30.319 21.9 31.216 21.6601 32.412H11.9399C11.5799 30.7972 10.0198 29.7209 8.4 30.0795C7.2 30.319 6.3 31.216 6.06006 32.412H4.8C4.43994 32.412 4.2 32.1725 4.2 31.814ZM7.2 33.01C7.2 31.9933 7.97988 31.216 9 31.216C10.0198 31.216 10.8 31.9933 10.8 33.01C10.8 34.0264 10.0198 34.804 9 34.804C7.97988 34.804 7.2 34.0264 7.2 33.01Z" fill="white"/>
<path d="M8.4 32.412H9.6V33.608H8.4V32.412Z" fill="white"/>
<path d="M21.6 5.7409L18 3.58803L14.4 5.7409V10.8838H21.6V5.7409ZM15.6 6.45833L17.4 5.38204V9.68779H15.6V6.45833ZM20.4 9.68779H18.6V5.38204L20.4 6.45833V9.68779Z" fill="white"/>
</svg>
